<svg id="Layer_1" data-name="Layer 1" xmlns="http://www.w3.org/2000/svg" width="818" height="291"><defs><style>.cls-1{fill:#e2e2e2}.cls-3{fill:#fff}.cls-4{fill:#333}.cls-5{fill:#faa31b}</style></defs><path class="cls-1" transform="rotate(90 409.623 143.694)" d="M315.673-267.539h187.9v822.464h-187.9z"/><circle cx="415.224" cy="143.694" r="137.953" fill="#00a8d6" opacity=".3"/><path class="cls-3" d="M317.895 237.801L197.76 259.074l-25.542-144.247 91.361-16.178 33.879 23.74 20.437 115.412z"/><path class="cls-4" d="M197.76 260.074a1.001 1.001 0 0 1-.985-.825L171.233 115a1 1 0 0 1 .81-1.16l91.362-16.177a.994.994 0 0 1 .748.166l33.88 23.74a1.001 1.001 0 0 1 .41.644l20.436 115.413a1 1 0 0 1-.81 1.16l-120.134 21.272a1 1 0 0 1-.175.015zm-24.383-144.437l25.194 142.278 118.164-20.924-20.19-114.02-33.2-23.265z"/><path class="cls-4" d="M269.371 128.362a1.001 1.001 0 0 1-.985-.825l-4.956-27.992a1 1 0 0 1 1.556-.994l33.044 23.017a1 1 0 0 1-.397 1.806l-28.088 4.973a1.001 1.001 0 0 1-.174.015zm-3.552-26.794l4.363 24.635 24.72-4.377zM206.93 206.597a1 1 0 0 1-.173-1.985l72.413-12.822a1 1 0 1 1 .349 1.97l-72.413 12.822a1.024 1.024 0 0 1-.175.015zM209.53 221.282a1 1 0 0 1-.173-1.985l81.475-14.427a1 1 0 0 1 .348 1.97l-81.474 14.427a1.024 1.024 0 0 1-.175.015zM212.13 235.966a1 1 0 0 1-.172-1.985l62.566-11.079a1 1 0 0 1 .349 1.97l-62.567 11.079a1.024 1.024 0 0 1-.175.015z"/><path class="cls-5" d="M255.593 152.204l-.203 4.66-1.364 4.866-1.874 3.928-2.311 2.421 6.767 7.022 3.158-2.229 3.64-7.494 1.714-8.695.348-6.741-9.875 2.262z"/><path class="cls-4" d="M236.964 125.068v2a27.503 27.503 0 0 1 4.759 54.584 27.775 27.775 0 0 1-4.83.426 27.503 27.503 0 0 1-4.76-54.584 27.781 27.781 0 0 1 4.83-.426l.001-2m-.001 0a29.503 29.503 0 1 0 29.013 24.361 29.707 29.707 0 0 0-29.013-24.361z"/><path class="cls-4" d="M236.952 135.008v2a17.563 17.563 0 0 1 3.038 34.857 17.743 17.743 0 0 1-3.085.272 17.563 17.563 0 0 1-3.039-34.856 17.75 17.75 0 0 1 3.085-.273l.001-2m-.001 0a19.563 19.563 0 1 0 19.239 16.154 19.697 19.697 0 0 0-19.24-16.154z"/><path class="cls-4" d="M255.97 152.195a1 1 0 0 1-.174-1.985l7.97-1.41a1 1 0 1 1 .35 1.969l-7.971 1.411a1.025 1.025 0 0 1-.175.015z"/><path class="cls-4" transform="rotate(-10.041 232.898 131.873)" d="M231.898 126.972h2v9.802h-2z"/><path class="cls-4" transform="rotate(-55.363 236.812 130.527)" d="M231.476 129.527h10.672v2h-10.672z"/><path class="cls-4" transform="rotate(-54.401 242.745 131.874)" d="M237.438 130.874h10.613v2h-10.613z"/><path class="cls-4" transform="rotate(-55.744 248.212 133.731)" d="M243.263 132.731h9.898v2h-9.898z"/><path class="cls-4" transform="rotate(-55.705 252.722 136.957)" d="M247.535 135.957h10.375v2h-10.375z"/><path class="cls-4" transform="rotate(-55.053 256.514 141.21)" d="M251.208 140.209h10.613v2h-10.613z"/><path class="cls-4" transform="rotate(-54.719 259.497 146.568)" d="M254.31 145.568h10.374v2H254.31z"/><path class="cls-4" transform="rotate(-44.48 252.803 171.75)" d="M251.803 166.383h2v10.735h-2z"/><g><path class="cls-3" d="M393.641 179.002l-120.135 21.273-25.542-144.247 91.361-16.178 33.879 23.74 20.437 115.412z"/><path class="cls-4" d="M273.506 201.275a1.001 1.001 0 0 1-.985-.826L246.979 56.202a1 1 0 0 1 .81-1.159l91.361-16.178a1 1 0 0 1 .75.166l33.878 23.74a.998.998 0 0 1 .41.645l20.437 115.412a1 1 0 0 1-.81 1.16L273.68 201.26a1.001 1.001 0 0 1-.174.015zM249.123 56.838l25.193 142.278 118.165-20.924-20.189-114.02-33.201-23.265z"/><path class="cls-4" d="M345.116 69.563a1 1 0 0 1-.983-.825l-4.957-27.991a1 1 0 0 1 1.555-.995l33.044 23.018a1 1 0 0 1-.396 1.805l-28.087 4.973a1.035 1.035 0 0 1-.176.015zm-3.552-26.793l4.364 24.634 24.718-4.377z"/><g><path class="cls-4" d="M282.677 147.798a1 1 0 0 1-.174-1.985l72.413-12.822a1 1 0 0 1 .35 1.97l-72.414 12.822a1.024 1.024 0 0 1-.175.015zM285.277 162.482a1 1 0 0 1-.173-1.984l40.736-7.214a1 1 0 0 1 .35 1.97l-40.738 7.213a1.025 1.025 0 0 1-.175.015zM287.877 177.167a1 1 0 0 1-.173-1.985l34.049-6.03a1 1 0 0 1 .35 1.97l-34.05 6.03a1.025 1.025 0 0 1-.176.015z"/></g><g><path class="cls-4" d="M287.076 113.069l1.29 7.55-5.89 1.007-1.29-7.55 5.89-1.007m.818-2.155a1.005 1.005 0 0 0-.17.015l-7.862 1.344a1 1 0 0 0-.817 1.154l1.628 9.522a.999.999 0 0 0 1.155.817l7.862-1.344a1 1 0 0 0 .817-1.154l-1.628-9.522a1 1 0 0 0-.985-.832zM318.66 103.351l1.987 11.619-5.891 1.007-1.987-11.62 5.89-1.006m.82-2.155a1.006 1.006 0 0 0-.17.015l-7.862 1.344a1 1 0 0 0-.818 1.154l2.324 13.59a.999.999 0 0 0 1.154.818l7.862-1.344a1 1 0 0 0 .817-1.155l-2.323-13.59a1 1 0 0 0-.985-.832zM330.814 87.28l4.302 25.159-5.89 1.007-4.302-25.16 5.89-1.007m.819-2.154a1.005 1.005 0 0 0-.17.014l-7.862 1.344a1 1 0 0 0-.817 1.155l4.639 27.13a.999.999 0 0 0 1.154.818l7.862-1.345a1 1 0 0 0 .817-1.154l-4.639-27.13a1 1 0 0 0-.984-.832zM301.791 101.51400000000001l2.781 16.269-5.89 1.007-2.782-16.269 5.89-1.007m.819-2.154a1.005 1.005 0 0 0-.17.014l-7.862 1.344a1 1 0 0 0-.817 1.155l3.119 18.24a.999.999 0 0 0 1.154.817l7.862-1.344a1 1 0 0 0 .817-1.154l-3.119-18.24a1 1 0 0 0-.984-.832z"/><path class="cls-4" transform="rotate(-50.091 288.849 93.27)" d="M281.84 92.269h14.018v2H281.84z"/><path class="cls-4" transform="rotate(-67.006 304.32 89.317)" d="M303.32 84.037h2v10.559h-2z"/><path class="cls-4" transform="rotate(-59.981 318.952 81.576)" d="M311.548 80.576h14.806v2.001h-14.806z"/><circle class="cls-5" cx="281.97" cy="101.728" r="5.374"/><path class="cls-4" d="M281.977 98.354a3.374 3.374 0 0 1 .581 6.697 3.418 3.418 0 0 1-.594.052 3.374 3.374 0 0 1-.582-6.697 3.43 3.43 0 0 1 .595-.052m0-2a5.374 5.374 0 1 0 5.285 4.437 5.416 5.416 0 0 0-5.286-4.437z"/><circle class="cls-5" cx="313.537" cy="91.927" r="5.374"/><path class="cls-4" d="M313.543 88.552a3.374 3.374 0 0 1 .582 6.698 3.418 3.418 0 0 1-.595.052 3.374 3.374 0 0 1-.582-6.697 3.43 3.43 0 0 1 .595-.053m0-2a5.374 5.374 0 1 0 5.285 4.438 5.416 5.416 0 0 0-5.285-4.438z"/><g><circle class="cls-5" cx="324.904" cy="71.619" r="5.374"/><path class="cls-4" d="M324.911 68.245a3.374 3.374 0 0 1 .582 6.697 3.418 3.418 0 0 1-.595.052 3.374 3.374 0 0 1-.582-6.697 3.43 3.43 0 0 1 .595-.052m0-2a5.374 5.374 0 1 0 5.285 4.437 5.416 5.416 0 0 0-5.285-4.437z"/></g><g><circle class="cls-5" cx="295.822" cy="85.375" r="5.374"/><path class="cls-4" d="M295.83 82h-.001a3.374 3.374 0 0 1 .582 6.698 3.417 3.417 0 0 1-.595.052 3.374 3.374 0 0 1-.582-6.697 3.43 3.43 0 0 1 .595-.052m0-2a5.374 5.374 0 1 0 5.285 4.437 5.416 5.416 0 0 0-5.285-4.437z"/></g></g></g><g><rect class="cls-3" x="402.428" y="197.378" width="18.157" height="41.634" rx="1.198" transform="rotate(-40.251 411.507 218.195)"/><path class="cls-4" d="M404.751 199.26l24.316 28.723-10.805 9.148-24.316-28.723 10.805-9.148m.092-2.327a1.192 1.192 0 0 0-.772.282l-12.03 10.184a1.201 1.201 0 0 0-.14 1.689l25.353 29.947a1.201 1.201 0 0 0 1.688.14l12.03-10.184a1.201 1.201 0 0 0 .14-1.688l-25.353-29.948a1.196 1.196 0 0 0-.916-.422z"/><path class="cls-3" transform="rotate(-40.251 395.489 199.393)" d="M392.093 193.488h6.791v11.81h-6.791z"/><path class="cls-4" d="M394.03 195.512l5.047 5.96-2.13 1.803-5.046-5.96 2.13-1.804m.234-2.818l-5.183 4.387 7.63 9.014 5.183-4.388-7.63-9.013z"/><path class="cls-3" d="M398.98 134.898a44.337 44.337 0 1 0-5.192 62.487 44.337 44.337 0 0 0 5.192-62.487z"/><path class="cls-4" d="M365.119 121.207a42.34 42.34 0 1 1-27.334 10.026 42.285 42.285 0 0 1 27.334-10.026m0-2a44.338 44.338 0 1 0 33.86 15.69 44.158 44.158 0 0 0-33.86-15.69z"/><path class="cls-4" d="M336.014 159.816a4 4 0 0 1-.693-7.94l40.738-7.212a4 4 0 0 1 1.394 7.878l-40.737 7.213a4.045 4.045 0 0 1-.702.061zM338.614 178.766a4 4 0 0 1-.692-7.94l34.05-6.03a4 4 0 0 1 1.394 7.879l-34.05 6.03a4.046 4.046 0 0 1-.702.06z"/><g><path class="cls-5" d="M398.98 134.898a44.337 44.337 0 1 0-5.192 62.487 44.337 44.337 0 0 0 5.192-62.487zm-15.287 50.562a28.713 28.713 0 1 1 3.362-40.467 28.713 28.713 0 0 1-3.362 40.467z"/><path class="cls-4" d="M365.119 121.207a42.34 42.34 0 1 1-27.334 10.026 42.285 42.285 0 0 1 27.334-10.026m.036 73.052A30.714 30.714 0 1 0 341.7 183.39a30.73 30.73 0 0 0 23.455 10.87m-.036-75.053a44.338 44.338 0 1 0 33.86 15.69 44.158 44.158 0 0 0-33.86-15.69zm.036 73.052a28.714 28.714 0 1 1 18.538-6.799 28.65 28.65 0 0 1-18.538 6.8z"/></g></g><g><path fill-rule="evenodd" fill="#faa31b" d="M619.92 204.089H503.65l-17.225-12.873 17.225-11.884h116.27v24.757z"/><path class="cls-4" d="M619.92 205.089H503.65a.999.999 0 0 1-.6-.2l-17.224-12.872a1 1 0 0 1 .031-1.624l17.224-11.884a1 1 0 0 1 .568-.176h116.27a1 1 0 0 1 1 1v24.756a1 1 0 0 1-1 1zm-115.939-2H618.92v-22.756H503.96l-15.821 10.916z"/><path class="cls-4" d="M613.991 198.678H510.407a1 1 0 0 1 0-2h103.584a1 1 0 0 1 0 2zM496.849 183.687h2v15.675h-2zM613.991 186.407H510.407a1 1 0 0 1 0-2h103.584a1 1 0 0 1 0 2zM613.991 192.542H510.407a1 1 0 0 1 0-2h103.584a1 1 0 0 1 0 2zM626.577 179.332h4.995a.951.951 0 0 1 .952.952v22.854a.951.951 0 0 1-.952.951h-4.995v-24.757z"/><path class="cls-4" d="M631.572 205.089h-4.995a1 1 0 0 1-1-1v-24.756a1 1 0 0 1 1-1h4.995a1.953 1.953 0 0 1 1.951 1.95v22.855a1.953 1.953 0 0 1-1.95 1.95zm-3.995-2h3.946v-22.805l-3.946.039zM497.848 183.687l-11.423 7.529 11.423 8.146v-15.675z"/></g><g><path class="cls-3" d="M436.919 86.212h55.001v82.3h-55.001z"/><path class="cls-4" d="M491.92 169.513H436.92a1 1 0 0 1-1-1v-82.3a1 1 0 0 1 1-1h55.002a1 1 0 0 1 1 1v82.3a1 1 0 0 1-1 1zm-54.001-2h53.002v-80.3h-53.002z"/></g><path class="cls-1" d="M442.199 91.927h44.442v15.176h-44.442z"/><g><rect class="cls-3" x="443.305" y="113.77" width="4.932" height="4.932" rx="1"/><path class="cls-4" d="M447.236 119.602h-2.931a1.902 1.902 0 0 1-1.9-1.9v-2.932a1.902 1.902 0 0 1 1.9-1.9h2.931a1.902 1.902 0 0 1 1.9 1.9v2.932a1.902 1.902 0 0 1-1.9 1.9zm-2.931-4.932a.1.1 0 0 0-.1.1v2.932a.1.1 0 0 0 .1.1h2.931a.1.1 0 0 0 .1-.1v-2.932a.099.099 0 0 0-.1-.1z"/><rect class="cls-3" x="452.63" y="113.77" width="4.932" height="4.932" rx="1"/><path class="cls-4" d="M456.562 119.602h-2.932a1.902 1.902 0 0 1-1.9-1.9v-2.932a1.902 1.902 0 0 1 1.9-1.9h2.932a1.902 1.902 0 0 1 1.9 1.9v2.932a1.902 1.902 0 0 1-1.9 1.9zm-2.932-4.932a.099.099 0 0 0-.1.1v2.932a.1.1 0 0 0 .1.1h2.932a.1.1 0 0 0 .1-.1v-2.932a.1.1 0 0 0-.1-.1z"/><rect class="cls-3" x="461.954" y="113.77" width="4.932" height="4.932" rx="1"/><path class="cls-4" d="M465.886 119.602h-2.932a1.902 1.902 0 0 1-1.9-1.9v-2.932a1.902 1.902 0 0 1 1.9-1.9h2.932a1.902 1.902 0 0 1 1.9 1.9v2.932a1.902 1.902 0 0 1-1.9 1.9zm-2.932-4.932a.099.099 0 0 0-.1.1v2.932a.1.1 0 0 0 .1.1h2.932a.1.1 0 0 0 .1-.1v-2.932a.099.099 0 0 0-.1-.1z"/><rect class="cls-3" x="471.279" y="113.77" width="4.932" height="4.932" rx="1"/><path class="cls-4" d="M475.21 119.602h-2.932a1.902 1.902 0 0 1-1.9-1.9v-2.932a1.902 1.902 0 0 1 1.9-1.9h2.933a1.902 1.902 0 0 1 1.9 1.9v2.932a1.902 1.902 0 0 1-1.9 1.9zm-2.932-4.932a.1.1 0 0 0-.1.1v2.932a.1.1 0 0 0 .1.1h2.933a.1.1 0 0 0 .1-.1v-2.932a.1.1 0 0 0-.1-.1z"/><rect class="cls-3" x="480.603" y="113.77" width="4.932" height="4.932" rx="1"/><path class="cls-4" d="M484.535 119.602h-2.931a1.902 1.902 0 0 1-1.9-1.9v-2.932a1.902 1.902 0 0 1 1.9-1.9h2.931a1.902 1.902 0 0 1 1.9 1.9v2.932a1.902 1.902 0 0 1-1.9 1.9zm-2.931-4.932a.099.099 0 0 0-.1.1v2.932a.1.1 0 0 0 .1.1h2.931a.1.1 0 0 0 .1-.1v-2.932a.099.099 0 0 0-.1-.1z"/><g><rect class="cls-3" x="443.305" y="123.4" width="4.932" height="4.932" rx="1"/><path class="cls-4" d="M447.236 129.231h-2.931a1.902 1.902 0 0 1-1.9-1.9V124.4a1.902 1.902 0 0 1 1.9-1.9h2.931a1.902 1.902 0 0 1 1.9 1.9v2.933a1.902 1.902 0 0 1-1.9 1.9zm-2.931-4.932a.1.1 0 0 0-.1.1v2.933a.1.1 0 0 0 .1.1h2.931a.1.1 0 0 0 .1-.1v-2.933a.1.1 0 0 0-.1-.1z"/></g><g><rect class="cls-3" x="452.63" y="123.4" width="4.932" height="4.932" rx="1"/><path class="cls-4" d="M456.562 129.231h-2.932a1.902 1.902 0 0 1-1.9-1.9V124.4a1.902 1.902 0 0 1 1.9-1.9h2.932a1.902 1.902 0 0 1 1.9 1.9v2.933a1.902 1.902 0 0 1-1.9 1.9zm-2.932-4.932a.1.1 0 0 0-.1.1v2.933a.1.1 0 0 0 .1.1h2.932a.1.1 0 0 0 .1-.1v-2.933a.1.1 0 0 0-.1-.1z"/></g><g><rect class="cls-3" x="461.954" y="123.4" width="4.932" height="4.932" rx="1"/><path class="cls-4" d="M465.886 129.231h-2.932a1.902 1.902 0 0 1-1.9-1.9V124.4a1.902 1.902 0 0 1 1.9-1.9h2.932a1.902 1.902 0 0 1 1.9 1.9v2.933a1.902 1.902 0 0 1-1.9 1.9zm-2.932-4.932a.1.1 0 0 0-.1.1v2.933a.1.1 0 0 0 .1.1h2.932a.1.1 0 0 0 .1-.1v-2.933a.1.1 0 0 0-.1-.1z"/></g><g><rect class="cls-3" x="471.279" y="123.4" width="4.932" height="4.932" rx="1"/><path class="cls-4" d="M475.21 129.231h-2.932a1.902 1.902 0 0 1-1.9-1.9V124.4a1.902 1.902 0 0 1 1.9-1.9h2.933a1.902 1.902 0 0 1 1.9 1.9v2.933a1.902 1.902 0 0 1-1.9 1.9zm-2.932-4.932a.1.1 0 0 0-.1.1v2.933a.1.1 0 0 0 .1.1h2.933a.1.1 0 0 0 .1-.1v-2.933a.1.1 0 0 0-.1-.1z"/></g><g><rect class="cls-3" x="480.603" y="123.4" width="4.932" height="4.932" rx="1"/><path class="cls-4" d="M484.535 129.231h-2.931a1.902 1.902 0 0 1-1.9-1.9V124.4a1.902 1.902 0 0 1 1.9-1.9h2.931a1.902 1.902 0 0 1 1.9 1.9v2.933a1.902 1.902 0 0 1-1.9 1.9zm-2.931-4.932a.1.1 0 0 0-.1.1v2.933a.1.1 0 0 0 .1.1h2.931a.1.1 0 0 0 .1-.1v-2.933a.1.1 0 0 0-.1-.1z"/></g></g><g><rect class="cls-3" x="443.305" y="133.029" width="4.932" height="4.932" rx="1"/><path class="cls-4" d="M447.236 138.86h-2.931a1.902 1.902 0 0 1-1.9-1.9v-2.93a1.902 1.902 0 0 1 1.9-1.9h2.931a1.902 1.902 0 0 1 1.9 1.9v2.93a1.902 1.902 0 0 1-1.9 1.9zm-2.931-4.93a.1.1 0 0 0-.1.1v2.93a.1.1 0 0 0 .1.101h2.931a.1.1 0 0 0 .1-.1v-2.932a.1.1 0 0 0-.1-.1z"/><rect class="cls-3" x="452.63" y="133.029" width="4.932" height="4.932" rx="1"/><path class="cls-4" d="M456.562 138.86h-2.932a1.902 1.902 0 0 1-1.9-1.9v-2.93a1.902 1.902 0 0 1 1.9-1.9h2.932a1.902 1.902 0 0 1 1.9 1.9v2.93a1.902 1.902 0 0 1-1.9 1.9zm-2.932-4.93a.1.1 0 0 0-.1.1v2.93a.1.1 0 0 0 .1.101h2.932a.1.1 0 0 0 .1-.1v-2.932a.1.1 0 0 0-.1-.1z"/><rect class="cls-3" x="461.954" y="133.029" width="4.932" height="4.932" rx="1"/><path class="cls-4" d="M465.886 138.86h-2.932a1.902 1.902 0 0 1-1.9-1.9v-2.93a1.902 1.902 0 0 1 1.9-1.9h2.932a1.902 1.902 0 0 1 1.9 1.9v2.93a1.902 1.902 0 0 1-1.9 1.9zm-2.932-4.93a.1.1 0 0 0-.1.1v2.93a.1.1 0 0 0 .1.101h2.932a.1.1 0 0 0 .1-.1v-2.932a.1.1 0 0 0-.1-.1z"/><rect class="cls-3" x="471.279" y="133.029" width="4.932" height="4.932" rx="1"/><path class="cls-4" d="M475.21 138.86h-2.932a1.902 1.902 0 0 1-1.9-1.9v-2.93a1.902 1.902 0 0 1 1.9-1.9h2.933a1.902 1.902 0 0 1 1.9 1.9v2.93a1.902 1.902 0 0 1-1.9 1.9zm-2.932-4.93a.1.1 0 0 0-.1.1v2.93a.1.1 0 0 0 .1.101h2.933a.1.1 0 0 0 .1-.1v-2.932a.1.1 0 0 0-.1-.1z"/><rect class="cls-3" x="480.603" y="133.029" width="4.932" height="4.932" rx="1"/><path class="cls-4" d="M484.535 138.86h-2.931a1.902 1.902 0 0 1-1.9-1.9v-2.93a1.902 1.902 0 0 1 1.9-1.9h2.931a1.902 1.902 0 0 1 1.9 1.9v2.93a1.902 1.902 0 0 1-1.9 1.9zm-2.931-4.93a.1.1 0 0 0-.1.1v2.93a.1.1 0 0 0 .1.101h2.931a.1.1 0 0 0 .1-.1v-2.932a.1.1 0 0 0-.1-.1z"/><rect class="cls-3" x="443.305" y="142.659" width="4.932" height="4.932" rx="1"/><path class="cls-4" d="M447.236 148.49h-2.931a1.902 1.902 0 0 1-1.9-1.9v-2.93a1.902 1.902 0 0 1 1.9-1.9h2.931a1.902 1.902 0 0 1 1.9 1.9v2.93a1.902 1.902 0 0 1-1.9 1.9zm-2.931-4.93a.1.1 0 0 0-.1.1v2.93a.1.1 0 0 0 .1.1h2.931a.1.1 0 0 0 .1-.1v-2.93a.1.1 0 0 0-.1-.1z"/><g><rect class="cls-3" x="452.63" y="142.659" width="4.932" height="4.932" rx="1"/><path class="cls-4" d="M456.562 148.49h-2.932a1.902 1.902 0 0 1-1.9-1.9v-2.93a1.902 1.902 0 0 1 1.9-1.9h2.932a1.902 1.902 0 0 1 1.9 1.9v2.93a1.902 1.902 0 0 1-1.9 1.9zm-2.932-4.93a.1.1 0 0 0-.1.1v2.93a.1.1 0 0 0 .1.1h2.932a.1.1 0 0 0 .1-.1v-2.93a.1.1 0 0 0-.1-.1z"/></g><g><rect class="cls-3" x="461.954" y="142.659" width="4.932" height="4.932" rx="1"/><path class="cls-4" d="M465.886 148.49h-2.932a1.902 1.902 0 0 1-1.9-1.9v-2.93a1.902 1.902 0 0 1 1.9-1.9h2.932a1.902 1.902 0 0 1 1.9 1.9v2.93a1.902 1.902 0 0 1-1.9 1.9zm-2.932-4.93a.1.1 0 0 0-.1.1v2.93a.1.1 0 0 0 .1.1h2.932a.1.1 0 0 0 .1-.1v-2.93a.1.1 0 0 0-.1-.1z"/></g><g><rect class="cls-3" x="471.279" y="142.659" width="4.932" height="4.932" rx="1"/><path class="cls-4" d="M475.21 148.49h-2.932a1.902 1.902 0 0 1-1.9-1.9v-2.93a1.902 1.902 0 0 1 1.9-1.9h2.933a1.902 1.902 0 0 1 1.9 1.9v2.93a1.902 1.902 0 0 1-1.9 1.9zm-2.932-4.93a.1.1 0 0 0-.1.1v2.93a.1.1 0 0 0 .1.1h2.933a.1.1 0 0 0 .1-.1v-2.93a.1.1 0 0 0-.1-.1z"/></g><g><rect class="cls-5" x="471.279" y="154.293" width="14.256" height="4.932" rx="1"/><path class="cls-4" d="M484.535 160.225h-12.257a2.002 2.002 0 0 1-2-2v-2.932a2.002 2.002 0 0 1 2-2h12.257a2.002 2.002 0 0 1 2 2v2.932a2.002 2.002 0 0 1-2 2zm-12.257-4.932v2.932h12.258v-2.932z"/></g><g><rect class="cls-3" x="480.603" y="142.659" width="4.932" height="4.932" rx="1"/><path class="cls-4" d="M484.535 148.49h-2.931a1.902 1.902 0 0 1-1.9-1.9v-2.93a1.902 1.902 0 0 1 1.9-1.9h2.931a1.902 1.902 0 0 1 1.9 1.9v2.93a1.902 1.902 0 0 1-1.9 1.9zm-2.931-4.93a.1.1 0 0 0-.1.1v2.93a.1.1 0 0 0 .1.1h2.931a.1.1 0 0 0 .1-.1v-2.93a.1.1 0 0 0-.1-.1z"/></g></g></svg>